<?xml version="1.0" encoding="UTF-8"?>
<!DOCTYPE svg PUBLIC "-//W3C//DTD SVG 1.1//EN" "http://www.w3.org/Graphics/SVG/1.1/DTD/svg11.dtd">
<svg version="1.1" xmlns="http://www.w3.org/2000/svg" xmlns:xlink="http://www.w3.org/1999/xlink" x="0" y="0" width="438" height="590" viewBox="0, 0, 438, 590">
  <g id="Layer_1">
    <path d="M221.652,179.493 C239.068,209.356 237.68,250.887 226.264,275.299 C226.784,278.582 227.334,282.725 227.75,287.15 C262.223,245.486 257.339,188.023 213.166,116.252 C214.364,132.294 209.968,151.532 205.327,171.842 C196.028,212.531 185.511,258.575 221.1,286.836 C220.626,281.989 219.985,277.383 219.343,273.849 C203.9,243.794 210.811,205.468 221.652,179.493" fill="#D8272D"/>
    <path d="M177.019,311.417 C181.545,313.943 187.386,316.205 194.134,318.087 L194.182,318.064 C201.634,315.144 212.549,317.114 215.449,320.627 C216.864,320.249 219.052,320.336 222.282,320.476 C228.123,320.733 236.12,321.079 244.321,318.683 C251.449,316.602 272.448,311.68 275.336,316.225 C275.753,316.883 275.813,317.621 275.543,318.43 C277.283,317.701 278.838,316.907 280.181,316.05 C280.931,314.907 281.196,313.815 280.936,312.785 C280.379,310.587 277.802,308.463 273.247,306.424 C263.366,302.441 247.647,298.786 228.387,297.05 C228.599,303.948 228.226,310.48 226.688,314.522 L220.528,312.181 C221.739,308.991 222.013,303.069 221.771,296.545 C218.008,296.31 214.322,296.174 210.731,296.125 C193.449,297.842 183.967,300.134 178.958,302.393 C174.976,304.691 173.513,307.643 177.019,311.417" fill="#F5EA3F"/>
    <path d="M223.695,213.639 C228.91,252.636 225.072,267.191 223.695,275.43 C216.552,267.178 217.275,233.687 223.695,213.639 M221.653,179.494 C210.813,205.468 203.9,243.794 219.343,273.85 C220.554,276.209 221.886,278.521 223.382,280.767 C224.405,279.065 225.363,277.23 226.266,275.299 C237.68,250.887 239.067,209.356 221.653,179.494" fill="#F9EC33"/>
    <path d="M189.943,455.849 C186.045,422.308 182.014,387.627 182.707,354.9 C183.157,333.499 182.047,320.016 175.028,314.423 C171.543,311.647 170.164,308.946 170.924,306.396 C172.361,301.58 181.649,298.011 199.211,295.562 C167.221,295.796 161.095,305.899 160.52,312.495 C160.595,313.132 161.47,316.68 162.571,321.147 C190.911,436.11 198.594,516.878 185.406,561.207 C179.559,580.859 182.303,582.332 182.332,582.341 C183.699,582.761 188.806,577.12 191.284,569.8 C200.146,543.62 195.19,500.987 189.943,455.849 M280.104,556.697 C280.337,563.304 280.55,569.373 280.72,574.722 C284.387,527.401 285.146,493.685 282.971,474.454 C277.984,430.377 281.742,395.865 284.229,373.031 C284.407,371.399 284.579,369.821 284.74,368.298 C274.609,400.179 278.159,501.289 280.104,556.697 M238.143,406.982 C245.106,375.145 251.119,347.649 248.42,330.006 C247.795,325.919 252.816,325.15 258.133,324.335 C263.152,323.566 268.841,322.695 271.74,319.409 C272.538,318.506 272.686,317.954 272.591,317.803 C271.385,315.911 258.387,317.001 244.046,321.191 C235.497,323.689 226.951,323.319 221.296,323.07 C219.886,323.008 218.386,322.941 217.16,322.952 C218.535,323.2 220.233,323.431 221.72,323.625 L221.738,323.608 L221.756,323.632 C222.034,323.667 222.319,323.705 222.576,323.738 C229.174,324.596 232.157,325.104 233.04,326.367 C240.458,337.004 235.233,376.419 229.185,422.061 C220.359,488.641 209.382,571.465 237.087,582.727 L261.6,582.766 C206.102,553.498 223.828,472.434 238.143,406.982 M175.792,445.941 C172.3,428.748 169.229,413.637 173.173,393.832 C170.616,399.408 168.083,407.49 168.969,416.515 C169.205,418.911 169.831,422.698 170.625,427.493 C173.824,446.805 179.776,482.749 174.725,515.473 L174.401,517.578 C168.563,555.41 165.723,573.806 166.24,581.131 C188.595,508.972 181.505,474.075 175.792,445.941 M159.636,372.136 C160.82,372.372 161.929,372.104 162.841,371.356 C164.266,370.188 165.051,368.036 165.051,365.298 C165.051,364.612 165.065,363.567 165.083,362.256 C165.22,352.209 165.083,344.96 164.784,339.753 C164.739,339.564 164.692,339.369 164.647,339.177 C164.056,349.367 160.761,353.978 157.965,357.866 C156.638,359.711 155.493,361.308 154.867,363.258 C154.098,365.665 154.167,367.669 155.076,369.212 C155.928,370.662 157.591,371.729 159.636,372.136 M292.856,539.261 C290.053,535.656 288.022,525.655 286.88,519.457 L286.88,543.425 C286.88,546.35 289.061,548.864 291.845,549.154 C293.179,549.284 294.187,548.823 294.752,547.8 C295.733,546.029 295.397,542.529 292.856,539.261 M287.048,408.754 L287.329,431.362 C287.329,434.022 289.294,436.299 291.801,436.556 C292.941,436.676 293.708,436.324 294.172,435.486 C295.044,433.912 294.691,430.598 292.322,427.549 C290.143,424.747 288.355,416.502 287.048,408.754 M156.6,499.442 C155.319,501.16 154.308,502.516 153.771,504.704 C152.802,508.646 153.515,513.029 155.543,515.614 C156.282,516.561 157.557,517.685 159.419,517.685 C163.547,517.685 164.872,515.329 164.872,507.983 C164.872,506.708 164.925,504.059 164.995,500.701 C165.137,493.769 165.418,479.999 165.266,469.437 C163.738,489.858 159.696,495.285 156.6,499.442 M256.244,512.605 C256.404,513.22 256.529,513.845 256.638,514.471 C256.532,513.842 256.4,513.22 256.244,512.605 C255.982,511.628 255.734,510.626 255.494,509.613 C255.443,509.404 255.386,509.197 255.336,508.987 L254.811,508.857 C254.887,508.554 254.963,508.133 255.04,507.646 C254.278,504.241 253.645,500.806 253.109,497.359 C252.308,492.229 251.673,487.072 251.18,481.902 C250.16,471.567 249.587,461.185 249.255,450.8 C248.911,440.817 248.874,430.806 248.622,420.857 C248.552,421.7 248.482,422.543 248.41,423.38 C248.01,428.544 247.68,433.724 247.332,438.901 C246.604,449.258 245.846,459.62 244.818,469.964 C243.749,480.301 242.576,490.645 240.538,500.87 C240.01,503.424 239.431,505.971 238.614,508.468 C238.43,509.097 238.208,509.714 237.953,510.326 L237.593,511.248 L237.14,512.141 L235.816,514.711 L235.5,515.606 C234.631,517.979 234.514,520.627 235.315,523.045 C236.112,525.465 237.784,527.555 239.814,529.111 C241.866,530.58 244.415,531.745 246.977,531.21 C248.241,530.984 249.451,530.466 250.538,529.776 C251.105,529.464 251.592,529.032 252.109,528.647 C252.564,528.19 253.078,527.782 253.471,527.267 C255.155,525.308 256.313,522.882 256.703,520.316 C257.016,518.408 256.963,516.46 256.651,514.555 C256.858,515.795 256.969,517.05 256.93,518.308 C256.991,516.561 256.792,514.66 256.244,512.605 M238.89,500.191 C239.113,500.332 239.312,500.422 239.494,500.483 C240.169,496.565 240.712,492.625 241.173,488.671 C240.232,486.476 238.682,483.247 237.073,479.903 C235.288,476.182 233.091,471.601 230.706,466.368 C229.953,472.4 229.364,478.399 228.995,484.326 C232.852,492.849 236.384,498.594 238.89,500.191 M192.966,321.186 C192.896,321.38 192.823,321.585 192.743,321.808 C192.746,322.84 193.851,324.755 195.116,326.943 C198.835,333.367 205.756,345.327 204.49,366.524 C202.64,397.563 211.727,437.163 221.498,465.268 C222.102,460 222.745,454.698 223.412,449.395 C213.39,424.459 203.623,391.976 207.063,362.795 C207.683,357.54 207.783,351.609 207.882,345.871 C208.071,334.652 208.223,325.79 212.006,323.871 C212.303,323.719 212.617,323.533 212.832,323.33 L212.808,323.277 C212.699,322.968 212.713,322.652 212.816,322.354 C210.984,320.174 201.535,317.593 194.091,320.508 C193.555,320.719 193.18,320.946 192.966,321.186 M268.799,478.99 C257,437.768 264.967,386.012 292.477,325.156 C293.505,322.882 294.396,320.91 294.523,320.43 C294.56,318.204 292.815,314.265 288.81,310.405 C283.838,305.615 272.406,298.193 249.24,297.976 C263.965,300.915 280.354,305.447 282.174,312.645 C282.867,315.387 281.469,318.174 278.015,320.925 C273.022,324.903 259.283,393.044 259.472,437.689 L259.472,437.744 C259.511,446.532 260.086,454.415 261.38,460.708 C270.892,506.953 268.224,532.41 266.274,550.999 C265.188,561.363 264.33,569.551 266.166,577.679 C266.836,580.648 267.494,581.16 267.587,581.219 C267.592,581.182 267.963,580.974 268.535,579.946 C274.094,569.983 280.229,518.934 268.799,478.99 M220.8,327.807 C217.897,327.537 214.984,327.204 212.088,326.802 C210.354,329.789 210.207,338.285 210.077,345.908 C209.98,351.7 209.878,357.691 209.245,363.052 C209.053,364.689 208.916,366.337 208.805,367.991 C209.734,372.96 212.264,378.893 215.205,385.01 C222.887,367.459 224.678,341.029 222.734,329.534 C222.098,328.88 221.452,328.304 220.8,327.807 M208.616,371.804 C207.857,396.702 215.592,423.267 223.983,444.867 C224.972,437.124 225.996,429.394 227.006,421.774 C227.243,419.984 227.479,418.198 227.716,416.418 C226.264,409.611 221.998,401.095 217.848,392.823 C214.223,385.598 210.513,378.194 208.616,371.804 M187.656,401.706 C187.704,400.852 187.744,399.996 187.803,399.14 C188.075,396.401 188.257,393.643 188.685,390.918 C189.366,385.439 190.508,380.019 191.893,374.666 C192.253,373.329 192.621,371.997 193.036,370.677 C193.437,369.356 193.829,368.029 194.288,366.728 C195.178,364.112 196.112,361.525 197.086,358.958 C198.02,356.388 198.985,353.836 199.718,351.221 C200.183,349.564 200.523,347.874 200.778,346.16 C198.819,337.763 195.547,332.072 193.214,328.043 C192.6,326.981 192.065,326.045 191.628,325.192 C189.89,330.678 187.54,338.914 186.18,344.668 C186.219,347.842 186.2,351.238 186.121,354.922 C185.801,370.057 186.478,385.812 187.656,401.706 M283.757,471.919 L283.557,389.918 C281.612,411.093 280.217,438.74 283.757,471.919 M267.715,347.162 C267.807,340.219 267.06,330.765 262.8,326.656 C259.534,327.259 256.019,327.728 252.276,328.058 C252.229,328.341 252.229,328.66 252.285,329.026 C253.715,338.378 252.68,350.436 250.398,364.249 C251.827,374.568 257.246,389.934 259.826,396.705 C261.809,378.929 264.721,361.196 267.715,347.162 M232.61,376.387 C233.387,368.845 233.971,361.821 234.271,355.542 C232.69,346.123 228.699,336.616 224.014,330.965 C224.949,338.424 224.538,350.117 222.664,361.774 C224.992,366.285 230.058,373.164 232.61,376.387 M206.657,529.326 C212.407,519.097 216.438,504.396 218.719,492.982 C218.896,490.836 219.084,488.671 219.285,486.495 C215.764,482.889 208.328,468.803 204.792,456.962 C204.078,480.566 203.749,506.123 206.657,529.326 M220.899,470.591 C215.078,454.69 209.467,434.593 205.903,414.352 C205.874,424.03 205.522,434.612 205.158,445.543 C205.074,448.058 204.99,450.612 204.908,453.186 C207.686,464.99 215.677,480.372 219.423,484.998 C219.867,480.25 220.365,475.44 220.899,470.591 M283.474,356.478 C272.103,388.19 260.233,435.85 272.495,478.688 C274.786,486.696 276.372,495.2 277.399,503.778 C276.123,451.113 276.229,392.695 283.504,368.729 L283.474,356.478 z M249.846,367.497 C245.027,394.997 235.81,428.918 231.25,462.23 C234.188,468.808 236.918,474.497 239.055,478.949 C240.082,481.089 240.937,482.871 241.642,484.378 C242.141,479.525 242.547,474.658 242.94,469.795 C243.763,459.459 244.451,449.108 245.144,438.753 C245.511,433.573 245.873,428.395 246.303,423.208 C246.528,420.609 246.756,418.035 247.18,415.386 C247.255,415.032 247.316,414.706 247.407,414.335 C247.488,414.094 247.583,413.857 247.687,413.627 C247.741,413.511 247.831,413.389 248,413.221 L248.189,413.075 C248.243,413.034 248.361,412.972 248.504,412.932 C248.731,412.833 249.213,412.898 249.401,413.045 C249.821,413.33 249.864,413.549 249.938,413.676 C250.008,413.826 250.039,413.938 250.07,414.045 C250.132,414.262 250.164,414.445 250.197,414.629 C250.256,414.989 250.292,415.328 250.322,415.667 C250.435,417.012 250.464,418.315 250.49,419.623 C250.564,424.841 250.442,430.025 250.407,435.217 C250.354,440.405 250.327,445.593 250.358,450.779 C250.382,454.327 250.442,457.876 250.524,461.423 C251.375,476.148 252.719,492.477 255.177,506.685 C256.245,498.472 257.338,473.997 257.983,452.601 C256.563,438.169 257.472,418.695 259.567,399.07 C257.661,394.263 252.039,378.987 249.846,367.497 M281.292,580.866 C281.248,581.405 281.209,581.884 281.174,582.334 L284.028,582.32 L283.931,542.668 C283.288,554.283 282.409,567.018 281.292,580.866 M259.979,576.005 C255.128,567.217 251.187,553.79 248.929,544.412 C244.2,544.346 234.577,535.021 236.031,525.551 C235.56,524.815 235.156,524.036 234.859,523.205 C233.954,520.706 234.001,517.898 234.85,515.385 L235.158,514.437 L235.591,513.542 L236.438,511.78 L236.844,510.929 L237.169,510.028 C237.399,509.434 237.6,508.826 237.765,508.202 C238.307,506.385 238.726,504.525 239.092,502.652 C238.671,502.546 238.213,502.362 237.71,502.042 C235.196,500.442 232.078,495.873 228.741,489.193 C227.303,523.901 234.023,555.708 259.979,576.005 M278.606,543.957 C277.657,562.08 274.887,576.756 272.174,582.375 L279.891,582.339 C279.707,575.443 279.401,566.71 279.051,556.734 C278.908,552.647 278.758,548.375 278.606,543.957 M264.089,550.772 C266.023,532.324 268.672,507.063 259.229,461.151 C259.1,460.524 258.979,459.878 258.863,459.219 C258.153,480.279 257.02,504.548 255.876,509.122 L255.598,509.054 C256.336,513.04 257.167,516.835 258.108,520.354 C261.098,531.547 255.277,542.869 250.042,544.271 C252.511,554.408 256.951,569.345 262.214,577.649 L262.182,577.67 C262.863,578.165 263.558,578.653 264.265,579.133 C264.183,578.826 264.101,578.509 264.022,578.163 C262.107,569.682 262.981,561.336 264.089,550.772 M232.447,377.936 C230.372,375.414 225.233,368.594 222.369,363.53 C220.938,371.759 218.775,379.852 215.836,386.306 C216.814,388.312 217.824,390.326 218.83,392.332 C222.483,399.614 226.225,407.083 228.101,413.495 C229.741,401.05 231.286,388.97 232.447,377.936 M167.787,352.758 L167.908,402.316 C169.791,394.605 173.206,388.721 174.882,386.161 C172.746,375.412 170.389,364.292 167.787,352.758 M172.23,517.243 L172.554,515.139 C177.551,482.762 171.636,447.041 168.457,427.852 C168.284,426.798 168.119,425.803 167.962,424.85 L168.254,543.189 C169.359,535.845 170.679,527.282 172.23,517.243 M193.811,572.793 C192.611,576.34 190.501,580.129 188.404,582.759 L204.492,582.687 C201.467,576.947 198.824,566.194 197.541,555.923 C196.732,562.091 195.52,567.747 193.811,572.793 M183.301,560.581 C193.065,527.756 191.243,474.601 177.928,402.067 C175.375,406.51 174.281,414.95 174.2,423.747 C175.003,430.973 176.429,438.04 177.943,445.505 C181.981,465.388 186.697,488.624 181.419,525.75 C180.168,548.946 177.506,571.553 171.818,582.836 L179.975,582.798 C178.956,580.391 179.116,574.649 183.301,560.581 M218.133,500.716 C215.603,511.178 211.85,522.818 206.889,531.12 C207.191,533.388 207.528,535.633 207.898,537.851 C212.2,554.071 219.108,571.8 222.516,580.165 C223.045,580.991 223.589,581.8 224.146,582.594 L232.295,582.558 C217.502,571.935 215.453,539.606 218.133,500.716 M204.106,526.482 C204.163,537.497 205.453,559.055 213.202,582.646 L205.739,582.68 C202.429,576.715 199.115,563.247 198.113,550.808 C201.624,513.014 192.079,458.316 187.896,404.852 C188.227,402.991 188.538,401.131 188.873,399.276 L189.613,395.231 C189.845,393.881 190.093,392.536 190.377,391.197 L191.173,387.174 L192.059,383.175 C192.332,381.836 192.681,380.519 192.992,379.191 C193.298,377.861 193.646,376.543 194.016,375.23 C195.378,369.947 197.082,364.769 198.704,359.508 C199.504,356.871 200.264,354.199 200.765,351.459 C200.958,350.297 201.086,349.128 201.167,347.956 C202.195,353.082 202.73,359.141 202.298,366.391 C201.776,375.142 202.124,384.675 203.119,394.497 L203.107,394.499 C204.197,408.392 203.598,426.404 202.963,445.471 C202.108,471.125 201.144,500.119 204.106,526.482" fill="#EB8D30"/>
    <path d="M223.695,213.639 C217.275,233.687 216.552,267.178 223.695,275.43 C225.072,267.191 228.91,252.636 223.695,213.639 M300.546,401.112 C304.116,399.502 307.687,397.76 311.153,395.937 L288.753,353.343 L288.807,375.095 L300.546,401.112 z M321.441,390.12 C324.799,388.088 328.139,385.923 331.366,383.693 L294.614,330.557 C293.477,333.129 292.178,336.123 290.779,339.498 L321.441,390.12 z M258.488,295.798 L242.633,265.651 C242.102,266.813 241.564,267.972 240.983,269.113 L252.866,295.448 C254.823,295.515 256.698,295.633 258.488,295.798 M272.3,298.294 L245.302,259.259 C244.912,260.304 244.485,261.334 244.06,262.363 L264.806,296.615 C267.527,297.075 270.02,297.646 272.3,298.294 M199.126,257.448 L175.891,295.858 C177.877,295.273 180.083,294.763 182.528,294.341 L200.253,260.6 C199.852,259.56 199.477,258.508 199.126,257.448 M201.594,263.814 L188.216,293.571 C189.862,293.401 191.581,293.26 193.406,293.161 L203.239,267.206 C202.656,266.087 202.106,264.958 201.594,263.814 M237.946,294.794 L234.36,280.215 C233.433,281.571 232.466,282.909 231.462,284.233 L233.286,294.227 C234.844,294.399 236.397,294.591 237.946,294.794 M243.092,295.527 C244.683,295.448 246.221,295.408 247.721,295.39 L239.087,272.645 C238.383,273.898 237.641,275.135 236.877,276.365 L242.84,295.488 L243.092,295.527 M81.554,84.345 C78.788,87.116 76.072,90.008 73.477,92.938 L197.761,202.922 C197.882,202.188 198.009,201.453 198.135,200.719 L81.554,84.345 z M27.553,258.012 C28.262,261.885 29.099,265.784 30.041,269.601 L195.217,228.855 C195.224,228.338 195.23,227.823 195.244,227.306 L27.553,258.012 z M24.685,211.102 C24.461,214.92 24.348,218.799 24.348,222.634 L24.358,223.915 L113.693,222.745 L195.439,222.745 C195.473,222.199 195.505,221.652 195.546,221.105 L24.685,211.102 z M24.708,234.569 C24.946,238.479 25.304,242.429 25.775,246.315 L195.294,225.774 C195.313,225.261 195.336,224.748 195.361,224.236 L24.708,234.569 z M41.656,303.172 C43.269,306.743 45.014,310.314 46.842,313.785 L195.326,235.588 C195.298,234.985 195.275,234.382 195.257,233.777 L41.656,303.172 z M52.669,324.079 C54.7,327.427 56.861,330.759 59.091,333.982 L195.584,239.489 C195.526,238.819 195.476,238.148 195.432,237.473 L52.669,324.079 z M33.108,164.63 C31.941,168.398 30.875,172.251 29.937,176.084 L195.923,216.63 C195.972,216.14 196.02,215.654 196.072,215.164 L33.108,164.63 z M65.924,102.009 C63.51,105.093 61.158,108.291 58.934,111.514 L197.133,206.906 C197.229,206.261 197.328,205.616 197.43,204.972 L65.924,102.009 z M52.51,121.449 C50.475,124.814 48.519,128.284 46.694,131.763 L196.64,210.428 C196.715,209.856 196.792,209.284 196.873,208.713 L52.51,121.449 z M41.495,142.451 C39.882,146.039 38.362,149.721 36.972,153.392 L196.24,213.641 C196.302,213.107 196.367,212.572 196.434,212.038 L41.495,142.451 z M27.47,187.705 C26.774,191.559 26.188,195.481 25.726,199.36 L195.657,219.594 C195.698,219.091 195.742,218.584 195.787,218.077 L27.47,187.705 z M66.1,343.479 C68.512,346.551 71.05,349.593 73.644,352.515 L196.072,243.914 C195.968,243.153 195.876,242.389 195.792,241.621 L66.1,343.479 z M207.408,274.045 C206.614,272.915 205.867,271.77 205.162,270.609 L198.21,292.993 C198.794,292.984 199.368,292.967 199.969,292.964 C200.9,292.925 201.846,292.893 202.801,292.868 L207.408,274.045 z M195.209,230.443 L33.23,281.021 C34.404,284.782 35.71,288.557 37.11,292.238 L195.222,232.073 C195.213,231.53 195.209,230.987 195.209,230.443 M161.33,321.274 C161.246,320.939 161.17,320.63 161.094,320.319 L118.836,390.174 C122.197,392.208 125.661,394.162 129.13,395.984 L163.292,330.958 C163.243,330.196 163.182,329.404 163.108,328.591 C162.521,326.161 161.936,323.737 161.33,321.274 M166.84,299.876 L198.226,254.463 C197.959,253.511 197.711,252.554 197.484,251.591 L99.387,376.74 C102.47,379.154 105.667,381.508 108.888,383.737 L159.387,310.663 C160.013,306.886 162.086,303.026 166.84,299.876 M211.856,114.037 L211.588,111.63 L212.869,113.686 C213.048,113.972 213.212,114.253 213.389,114.538 L208.06,27.253 C204.149,27.491 200.195,27.851 196.311,28.325 L210.249,142.844 C211.979,132.446 212.828,122.711 211.856,114.037 M282.363,302.133 C294.935,307.85 299.271,316.362 299.152,320.128 C299.145,320.358 298.828,321.138 298.271,322.402 L340.873,376.685 C343.95,374.271 346.991,371.733 349.912,369.146 L247.268,253.348 C246.977,254.319 246.674,255.285 246.352,256.246 L282.363,302.133 z M211.56,292.835 L212.986,280.878 C211.951,279.773 210.966,278.651 210.034,277.507 L207.254,292.799 C208.67,292.794 210.109,292.81 211.56,292.835 M228.813,293.779 L228.16,288.374 C228.069,288.484 227.98,288.592 227.89,288.7 C228.031,290.359 228.152,292.043 228.244,293.727 C228.434,293.744 228.623,293.762 228.813,293.779 M160.096,373.892 C157.439,373.362 155.244,371.915 154.074,369.929 L153.978,369.739 L139.834,401.197 C143.419,402.809 147.095,404.33 150.756,405.718 L162.85,373.801 C162.36,373.93 161.858,374.016 161.343,374.016 C160.932,374.016 160.515,373.975 160.096,373.892 M162.002,409.591 C162.804,409.84 163.619,410.065 164.424,410.303 L164.404,401.859 L162.002,409.591 z M221.609,293.229 C221.512,291.601 221.385,289.962 221.24,288.336 C219.509,287 217.883,285.626 216.354,284.214 L215.841,292.946 C217.742,293.015 219.668,293.112 221.609,293.229 M99.192,68.681 C96.112,71.101 93.061,73.651 90.124,76.261 L198.563,198.33 C198.719,197.475 198.878,196.62 199.041,195.765 L99.192,68.681 z M81.733,361.1 C84.503,363.867 87.392,366.586 90.321,369.182 L196.897,248.881 C196.729,248.031 196.571,247.18 196.43,246.321 L81.733,361.1 z M374.13,343.431 C376.549,340.35 378.907,337.152 381.138,333.927 L249.756,243.026 C249.605,243.835 249.473,244.65 249.303,245.453 L374.13,343.431 z M415.47,210.495 C415.228,206.58 414.865,202.628 414.391,198.747 L251.423,218.668 C251.448,219.313 251.458,219.952 251.475,220.592 L415.47,210.495 z M415.842,222.409 C415.842,222.053 415.838,221.697 415.833,221.341 L415.841,222.419 L415.842,222.419 L415.842,222.409 z M415.495,234.343 C415.726,230.457 415.843,226.518 415.843,222.634 L415.841,222.419 L251.497,222.409 C251.503,223.147 251.532,223.89 251.524,224.622 L415.495,234.343 z M406.9,164.051 C405.724,160.295 404.415,156.527 403.013,152.849 L250.855,210.903 C250.922,211.566 250.998,212.233 251.054,212.891 L406.9,164.051 z M412.601,187.053 C411.89,183.193 411.051,179.3 410.106,175.489 L251.203,214.822 C251.25,215.471 251.278,216.114 251.314,216.758 L412.601,187.053 z M358.501,361.057 C361.267,358.291 363.982,355.408 366.574,352.485 L248.713,247.955 C248.502,248.845 248.298,249.737 248.063,250.618 L358.501,361.057 z M387.58,323.983 C389.615,320.624 391.572,317.159 393.397,313.69 L250.487,238.514 C250.383,239.26 250.289,240.011 250.169,240.752 L387.58,323.983 z M412.672,257.828 C413.377,253.958 413.973,250.008 414.442,246.087 L251.463,226.55 C251.445,227.179 251.426,227.807 251.399,228.432 L412.672,257.828 z M398.464,141.938 C396.843,138.358 395.089,134.778 393.249,131.293 L250.377,206.743 C250.469,207.442 250.567,208.144 250.648,208.839 L398.464,141.938 z M398.617,302.99 C400.231,299.403 401.756,295.727 403.146,292.064 L250.993,234.33 C250.924,235.032 250.843,235.728 250.761,236.424 L398.617,302.99 z M407.02,280.833 C408.192,277.061 409.265,273.207 410.203,269.381 L251.313,230.395 C251.272,231.043 251.207,231.678 251.155,232.322 L407.02,280.833 z M161.606,35.798 C157.843,36.976 154.07,38.284 150.391,39.686 L202.915,177.484 C203.339,175.613 203.764,173.751 204.188,171.9 L161.606,35.798 z M387.422,121.022 C385.385,117.671 383.218,114.338 380.982,111.117 L249.717,202.193 C249.846,202.973 249.947,203.744 250.063,204.52 L387.422,121.022 z M231.521,27.217 C227.739,26.997 223.895,26.886 220.096,26.886 L219.928,26.886 L219.928,125.487 C221.785,128.712 223.572,131.913 225.266,135.079 L231.521,27.217 z M184.614,30.11 C180.74,30.82 176.842,31.66 173.026,32.604 L205.758,164.984 C206.442,161.957 207.108,158.955 207.735,155.997 L184.614,30.11 z M118.56,55.26 C115.212,57.294 111.88,59.457 108.66,61.689 L199.601,192.895 C199.811,191.842 200.025,190.79 200.241,189.738 L118.56,55.26 z M139.452,44.24 C135.881,45.856 132.313,47.602 128.849,49.429 L200.986,186.213 C201.276,184.859 201.571,183.505 201.87,182.155 L139.452,44.24 z M254.942,29.994 C251.09,29.299 247.163,28.714 243.269,28.252 L229.603,143.506 C230.842,145.996 232.026,148.468 233.159,150.922 L254.942,29.994 z M358.287,83.997 C355.524,81.244 352.643,78.538 349.724,75.957 L247.563,191.484 C247.798,192.482 248.005,193.468 248.219,194.456 L358.287,83.997 z M373.952,101.609 C371.537,98.542 369,95.51 366.412,92.597 L248.801,197.148 C248.977,198.034 249.12,198.905 249.279,199.785 L373.952,101.609 z M277.991,35.614 C274.226,34.448 270.375,33.385 266.548,32.452 L236.077,157.462 C236.916,159.414 237.721,161.354 238.491,163.281 L277.991,35.614 z M340.659,68.414 C337.563,65.993 334.354,63.635 331.117,61.404 L245.913,185.029 C246.226,186.154 246.493,187.262 246.779,188.377 L340.659,68.414 z M300.179,43.989 C296.592,42.379 292.912,40.861 289.244,39.476 L240.509,168.494 C241.098,170.078 241.682,171.658 242.224,173.223 L300.179,43.989 z M244.854,181.442 C244.464,180.133 244.063,178.821 243.638,177.499 L310.88,49.187 C314.355,51.008 317.822,52.961 321.185,54.99 L244.854,181.442" fill="#FFFFFE"/>
    <path d="M162.85,373.801 C162.36,373.93 161.86,374.016 161.343,374.016 C160.932,374.016 160.515,373.975 160.096,373.892 C157.439,373.362 155.244,371.915 154.073,369.929 L153.977,369.737 L139.834,401.197 C143.419,402.809 147.095,404.33 150.756,405.718 L162.85,373.801 z M374.13,343.432 C376.549,340.349 378.907,337.152 381.138,333.927 L249.756,243.025 C249.605,243.835 249.472,244.65 249.303,245.453 L374.13,343.432 z M366.574,352.485 L248.714,247.955 C248.502,248.845 248.299,249.738 248.063,250.618 L358.501,361.057 C361.267,358.291 363.982,355.407 366.574,352.485 M300.547,401.112 C304.117,399.502 307.686,397.76 311.153,395.937 L288.753,353.343 L288.807,375.093 L300.547,401.112 z M162.002,409.591 C162.804,409.842 163.619,410.065 164.427,410.303 L164.405,401.859 L162.002,409.591 z M155.967,368.813 C156.82,370.263 158.481,371.329 160.526,371.737 C161.711,371.973 162.822,371.703 163.731,370.956 C165.158,369.789 165.941,367.637 165.941,364.9 C165.941,364.213 165.957,363.168 165.975,361.857 C166.111,351.811 165.973,344.561 165.675,339.357 C165.63,339.163 165.583,338.97 165.538,338.779 C164.947,348.969 161.652,353.579 158.857,357.467 C157.529,359.315 156.383,360.908 155.759,362.859 C154.988,365.266 155.057,367.27 155.967,368.813 M129.13,395.984 L163.292,330.958 C163.242,330.196 163.181,329.404 163.107,328.59 C162.521,326.16 161.936,323.736 161.33,321.275 C161.247,320.938 161.17,320.631 161.092,320.319 L118.836,390.174 C122.197,392.205 125.661,394.162 129.13,395.984 M66.099,343.479 C68.512,346.551 71.05,349.592 73.644,352.515 L196.072,243.914 C195.968,243.153 195.876,242.389 195.792,241.621 L66.099,343.479 z M24.348,222.633 L24.357,223.914 L113.693,222.745 L195.439,222.745 C195.473,222.199 195.507,221.654 195.546,221.106 L24.685,211.103 C24.461,214.92 24.348,218.799 24.348,222.633 M65.924,102.01 C63.51,105.093 61.158,108.291 58.933,111.514 L197.133,206.906 C197.229,206.261 197.328,205.616 197.43,204.973 L65.924,102.01 z M73.478,92.938 L197.76,202.922 C197.882,202.188 198.008,201.453 198.136,200.719 L81.555,84.345 C78.789,87.116 76.071,90.008 73.478,92.938 M213.389,114.538 L208.059,27.253 C204.148,27.492 200.196,27.852 196.311,28.325 L210.249,142.844 C211.979,132.446 212.828,122.711 211.855,114.037 L211.588,111.63 L212.869,113.686 C213.048,113.971 213.212,114.253 213.389,114.538 M219.928,125.486 C221.785,128.713 223.572,131.912 225.266,135.078 L231.522,27.216 C227.739,26.997 223.895,26.886 220.096,26.886 L219.928,26.886 L219.928,125.486 z M373.952,101.609 C371.537,98.542 369,95.51 366.41,92.597 L248.801,197.148 C248.977,198.033 249.12,198.906 249.279,199.785 L373.952,101.609 z M415.495,234.343 C415.726,230.457 415.843,226.518 415.843,222.633 L415.841,222.419 L415.842,222.419 L415.842,222.409 C415.842,222.053 415.838,221.698 415.833,221.341 L415.841,222.419 L251.497,222.409 C251.503,223.147 251.531,223.89 251.524,224.622 L415.495,234.343 z M412.672,257.828 C413.377,253.958 413.973,250.008 414.442,246.087 L251.463,226.55 C251.445,227.179 251.426,227.808 251.399,228.431 L412.672,257.828 z M407.018,280.831 C408.192,277.061 409.265,273.207 410.203,269.381 L251.313,230.395 C251.273,231.043 251.207,231.679 251.155,232.322 L407.018,280.831 z M398.617,302.99 C400.231,299.403 401.755,295.727 403.146,292.064 L250.993,234.33 C250.924,235.032 250.843,235.729 250.761,236.424 L398.617,302.99 z M250.169,240.752 L387.58,323.983 C389.615,320.622 391.572,317.159 393.397,313.69 L250.487,238.514 C250.383,239.26 250.288,240.011 250.169,240.752 M387.422,121.023 C385.385,117.671 383.218,114.337 380.982,111.116 L249.718,202.193 C249.846,202.973 249.947,203.744 250.063,204.52 L387.422,121.023 z M398.464,141.939 C396.843,138.358 395.089,134.778 393.249,131.293 L250.377,206.743 C250.469,207.442 250.567,208.144 250.648,208.838 L398.464,141.939 z M406.9,164.051 C405.724,160.296 404.415,156.527 403.013,152.849 L250.855,210.903 C250.922,211.566 250.998,212.233 251.054,212.892 L406.9,164.051 z M251.423,218.668 C251.448,219.313 251.459,219.952 251.475,220.592 L415.47,210.495 C415.228,206.58 414.865,202.628 414.391,198.749 L251.423,218.668 z M412.601,187.053 C411.89,183.193 411.051,179.3 410.106,175.489 L251.203,214.822 C251.249,215.471 251.278,216.113 251.314,216.759 L412.601,187.053 z M254.942,29.994 C251.09,29.299 247.163,28.714 243.27,28.252 L229.603,143.506 C230.841,145.996 232.025,148.468 233.159,150.922 L254.942,29.994 z M277.991,35.614 C274.226,34.449 270.375,33.385 266.548,32.452 L236.077,157.462 C236.916,159.414 237.721,161.354 238.491,163.281 L277.991,35.614 z M300.18,43.989 C296.592,42.379 292.912,40.86 289.244,39.476 L240.509,168.494 C241.098,170.078 241.682,171.658 242.224,173.224 L300.18,43.989 z M321.185,54.99 C317.822,52.961 314.355,51.008 310.88,49.187 L243.638,177.499 C244.063,178.821 244.464,180.133 244.854,181.441 L321.185,54.99 z M247.563,191.484 C247.799,192.482 248.004,193.468 248.219,194.456 L358.287,83.997 C355.524,81.243 352.642,78.538 349.724,75.957 L247.563,191.484 z M340.659,68.414 C337.563,65.993 334.354,63.635 331.117,61.403 L245.913,185.029 C246.226,186.154 246.493,187.262 246.779,188.378 L340.659,68.414 z M99.191,68.682 C96.113,71.101 93.061,73.652 90.123,76.26 L198.563,198.33 C198.719,197.475 198.876,196.619 199.041,195.764 L99.191,68.682 z M118.56,55.26 C115.211,57.294 111.882,59.457 108.66,61.689 L199.601,192.895 C199.811,191.842 200.024,190.79 200.242,189.738 L118.56,55.26 z M139.452,44.241 C135.881,45.856 132.314,47.603 128.849,49.429 L200.985,186.213 C201.276,184.857 201.572,183.505 201.87,182.155 L139.452,44.241 z M161.606,35.799 C157.842,36.976 154.069,38.284 150.391,39.687 L202.915,177.485 C203.338,175.613 203.764,173.751 204.187,171.9 L161.606,35.799 z M205.761,164.984 C206.442,161.957 207.108,158.955 207.734,155.998 L184.614,30.11 C180.74,30.82 176.841,31.66 173.026,32.604 L205.761,164.984 z M213.166,116.252 C214.364,132.294 209.968,151.532 205.327,171.842 C196.028,212.531 185.51,258.575 221.1,286.835 C220.626,281.989 219.985,277.384 219.343,273.849 C220.554,276.208 221.886,278.52 223.382,280.766 C224.405,279.065 225.363,277.23 226.264,275.299 C226.784,278.582 227.334,282.725 227.75,287.15 C262.223,245.486 257.339,188.023 213.166,116.252 M340.873,376.685 C343.95,374.269 346.991,371.733 349.912,369.146 L247.268,253.348 C246.978,254.319 246.674,255.285 246.352,256.246 L282.363,302.131 C294.935,307.849 299.271,316.361 299.152,320.129 C299.145,320.359 298.828,321.14 298.271,322.401 L340.873,376.685 z M290.779,339.498 L321.441,390.12 C324.799,388.086 328.139,385.923 331.366,383.69 L294.614,330.555 C293.477,333.13 292.178,336.123 290.779,339.498 M273.065,581.976 L280.781,581.942 C280.599,575.046 280.292,566.312 279.942,556.335 C279.799,552.247 279.649,547.976 279.498,543.558 C278.548,561.682 275.777,576.36 273.065,581.976 M237.979,582.328 L262.491,582.366 C206.992,553.097 224.72,472.032 239.034,406.583 C245.998,374.745 252.012,347.25 249.312,329.608 C248.687,325.519 253.708,324.751 259.024,323.936 C264.044,323.167 269.732,322.296 272.631,319.01 C273.43,318.106 273.577,317.554 273.482,317.404 C272.276,315.512 259.278,316.602 244.937,320.792 C236.389,323.291 227.842,322.919 222.187,322.671 C220.777,322.609 219.277,322.542 218.052,322.554 C219.427,322.801 221.125,323.033 222.611,323.227 L222.63,323.209 L222.646,323.232 C222.925,323.268 223.21,323.305 223.468,323.339 C230.064,324.196 233.049,324.704 233.932,325.968 C241.35,336.605 236.125,376.022 230.076,421.661 C221.251,488.242 210.273,571.066 237.979,582.328 M233.187,582.158 C218.394,571.536 216.344,539.207 219.023,500.317 C216.494,510.779 212.741,522.42 207.779,530.722 C208.082,532.991 208.421,535.234 208.79,537.452 C213.092,553.672 220,571.401 223.407,579.766 C223.937,580.592 224.479,581.402 225.038,582.197 L233.187,582.158 z M214.094,582.246 C206.345,558.656 205.055,537.098 204.996,526.083 C202.034,499.721 202.999,470.726 203.854,445.071 C204.488,426.004 205.089,407.992 203.999,394.1 L204.011,394.1 C203.014,384.276 202.668,374.743 203.19,365.993 C203.622,358.741 203.086,352.683 202.057,347.558 C201.978,348.728 201.849,349.899 201.655,351.06 C201.154,353.8 200.396,356.472 199.595,359.109 C197.972,364.369 196.27,369.549 194.906,374.831 C194.537,376.144 194.189,377.461 193.884,378.792 C193.571,380.12 193.222,381.44 192.949,382.776 L192.063,386.778 L191.267,390.8 C190.984,392.137 190.735,393.483 190.503,394.834 L189.764,398.876 C189.429,400.732 189.119,402.592 188.787,404.454 C192.97,457.917 202.514,512.615 199.005,550.408 C200.007,562.849 203.318,576.319 206.629,582.28 L214.094,582.246 z M189.295,582.361 L205.383,582.287 C202.356,576.548 199.717,565.794 198.434,555.524 C197.622,561.693 196.411,567.348 194.702,572.397 C193.503,575.941 191.392,579.73 189.295,582.361 M172.708,582.438 L180.866,582.401 C179.847,579.993 180.007,574.25 184.191,560.182 C193.958,527.358 192.132,474.201 178.82,401.667 C176.267,406.111 175.172,414.551 175.092,423.348 C175.895,430.576 177.319,437.644 178.835,445.106 C182.874,464.987 187.59,488.225 182.309,525.351 C181.059,548.546 178.396,571.154 172.708,582.438 M167.132,580.732 C189.487,508.573 182.396,473.676 176.682,445.543 C173.191,428.35 170.121,413.238 174.064,393.433 C171.508,399.009 168.974,407.094 169.86,416.117 C170.095,418.512 170.723,422.299 171.518,427.094 C174.714,446.404 180.667,482.351 175.618,515.074 L175.292,517.179 C169.454,555.011 166.614,573.406 167.132,580.732 M169.145,542.79 C170.25,535.448 171.571,526.885 173.12,516.844 L173.446,514.739 C178.441,482.363 172.528,446.642 169.35,427.45 C169.175,426.399 169.009,425.405 168.854,424.453 L169.145,542.79 z M168.799,401.916 C170.682,394.205 174.097,388.321 175.772,385.763 C173.637,375.014 171.28,363.893 168.677,352.361 L168.799,401.916 z M161.412,312.097 C161.486,312.732 162.36,316.281 163.463,320.748 C191.804,435.711 199.486,516.477 186.297,560.808 C180.452,580.459 183.196,581.931 183.224,581.942 C184.591,582.362 189.699,576.722 192.175,569.404 C201.038,543.224 196.082,500.587 190.836,455.449 C186.937,421.908 182.905,387.228 183.597,354.5 C184.049,333.1 182.938,319.616 175.92,314.024 C172.436,311.249 171.055,308.548 171.816,305.996 C173.252,301.182 182.54,297.612 200.103,295.164 C168.113,295.396 161.986,305.5 161.412,312.097 M200.253,260.601 C199.852,259.56 199.475,258.508 199.126,257.448 L175.893,295.858 C177.877,295.274 180.083,294.763 182.528,294.341 L200.253,260.601 z M203.241,267.206 C202.656,266.087 202.106,264.957 201.594,263.814 L188.216,293.571 C189.861,293.401 191.581,293.259 193.406,293.161 L203.241,267.206 z M207.408,274.045 C206.614,272.917 205.867,271.77 205.162,270.61 L198.21,292.993 C198.794,292.983 199.369,292.967 199.969,292.964 C200.902,292.924 201.846,292.893 202.801,292.868 L207.408,274.045 z M212.988,280.877 C211.95,279.773 210.965,278.651 210.034,277.507 L207.254,292.798 C208.67,292.794 210.109,292.81 211.56,292.835 L212.988,280.877 z M221.609,293.229 C221.512,291.601 221.387,289.962 221.24,288.336 C219.51,287 217.882,285.626 216.354,284.214 L215.841,292.946 C217.742,293.015 219.668,293.112 221.609,293.229 M235.163,355.146 C233.581,345.724 229.591,336.218 224.905,330.567 C225.841,338.026 225.43,349.719 223.555,361.374 C225.883,365.886 230.949,372.765 233.501,375.987 C234.276,368.446 234.862,361.421 235.163,355.146 M233.339,377.536 C231.264,375.016 226.124,368.197 223.261,363.131 C221.83,371.36 219.667,379.454 216.728,385.906 C217.704,387.912 218.715,389.929 219.721,391.933 C223.374,399.217 227.116,406.686 228.992,413.097 C230.633,400.653 232.178,388.571 233.339,377.536 M224.875,444.469 C225.863,436.726 226.888,428.995 227.896,421.374 C228.134,419.582 228.371,417.8 228.607,416.021 C227.155,409.211 222.89,400.696 218.738,392.424 C215.113,385.198 211.403,377.794 209.509,371.404 C208.749,396.304 216.483,422.867 224.875,444.469 M223.626,329.134 C222.989,328.481 222.343,327.905 221.691,327.408 C218.789,327.139 215.875,326.805 212.978,326.404 C211.246,329.39 211.099,337.887 210.97,345.51 C210.871,351.303 210.77,357.291 210.136,362.655 C209.944,364.288 209.807,365.938 209.697,367.594 C210.625,372.561 213.155,378.493 216.097,384.609 C223.778,367.06 225.569,340.631 223.626,329.134 M188.692,398.741 C188.967,396.001 189.147,393.244 189.577,390.52 C190.258,385.039 191.398,379.62 192.784,374.267 C193.145,372.93 193.513,371.598 193.928,370.279 C194.327,368.956 194.722,367.631 195.181,366.328 C196.069,363.713 197.002,361.125 197.979,358.562 C198.911,355.988 199.877,353.438 200.609,350.822 C201.074,349.164 201.416,347.476 201.67,345.764 C199.712,337.364 196.438,331.673 194.105,327.644 C193.492,326.583 192.956,325.648 192.519,324.792 C190.78,330.279 188.431,338.516 187.072,344.27 C187.11,347.443 187.09,350.839 187.013,354.523 C186.693,369.658 187.369,385.413 188.549,401.309 C188.594,400.453 188.635,399.597 188.692,398.741 M224.303,448.996 C214.281,424.061 204.514,391.577 207.955,362.396 C208.574,357.141 208.675,351.21 208.772,345.472 C208.964,334.252 209.114,325.391 212.898,323.473 C213.194,323.321 213.509,323.134 213.724,322.931 L213.699,322.879 C213.59,322.57 213.604,322.254 213.707,321.956 C211.875,319.776 202.426,317.193 194.982,320.109 C194.443,320.32 194.071,320.548 193.856,320.787 C193.787,320.982 193.713,321.188 193.636,321.41 C193.636,322.441 194.741,324.357 196.007,326.543 C199.725,332.968 206.647,344.927 205.382,366.124 C203.531,397.166 212.619,436.764 222.389,464.868 C222.993,459.601 223.637,454.3 224.303,448.996 M207.548,528.928 C213.298,518.697 217.329,503.996 219.609,492.582 C219.787,490.435 219.976,488.272 220.175,486.097 C216.653,482.489 209.22,468.406 205.684,456.561 C204.969,480.166 204.641,505.724 207.548,528.928 M221.791,470.192 C215.969,454.291 210.358,434.194 206.795,413.95 C206.765,423.631 206.412,434.213 206.05,445.145 C205.967,447.659 205.882,450.214 205.799,452.787 C208.577,464.594 216.568,479.975 220.313,484.599 C220.759,479.851 221.256,475.04 221.791,470.192 M228.161,288.374 C228.069,288.483 227.981,288.593 227.89,288.7 C228.031,290.358 228.152,292.043 228.244,293.727 C228.435,293.744 228.623,293.764 228.813,293.779 L228.161,288.374 z M234.361,280.215 C233.433,281.57 232.466,282.909 231.462,284.233 L233.287,294.228 C234.844,294.399 236.397,294.59 237.946,294.794 L234.361,280.215 z M239.087,272.645 C238.383,273.898 237.641,275.136 236.878,276.365 L242.84,295.488 L243.092,295.526 C244.684,295.448 246.22,295.407 247.721,295.391 L239.087,272.645 z M242.633,265.651 C242.101,266.813 241.564,267.971 240.983,269.113 L252.866,295.448 C254.823,295.515 256.697,295.633 258.488,295.798 L242.633,265.651 z M272.3,298.294 L245.302,259.259 C244.912,260.304 244.485,261.334 244.06,262.363 L264.806,296.615 C267.527,297.075 270.02,297.645 272.3,298.294 M284.365,356.079 C272.993,387.79 261.125,435.451 273.387,478.289 C275.678,486.296 277.264,494.801 278.29,503.379 C277.015,450.717 277.119,392.296 284.396,368.33 L284.365,356.079 z M285.631,367.899 C275.501,399.779 279.051,500.89 280.996,556.298 C281.229,562.906 281.44,568.974 281.611,574.323 C285.278,527.001 286.037,493.286 283.862,474.058 C278.876,429.978 282.634,395.469 285.12,372.632 C285.299,370.999 285.471,369.422 285.631,367.899 M284.448,389.522 C282.504,410.694 281.108,438.341 284.648,471.522 L284.448,389.522 z M269.427,579.547 C274.985,569.583 281.121,518.534 269.689,478.594 C257.891,437.369 265.857,385.612 293.367,324.758 C294.396,322.483 295.288,320.511 295.415,320.03 C295.451,317.805 293.707,313.866 289.7,310.006 C284.729,305.217 273.298,297.795 250.133,297.577 C264.855,300.517 281.244,305.049 283.065,312.245 C283.759,314.988 282.36,317.774 278.906,320.526 C273.913,324.504 260.174,392.648 260.362,437.29 L260.363,437.29 L260.362,437.346 C260.4,446.134 260.978,454.017 262.271,460.309 C271.783,506.554 269.115,532.011 267.166,550.6 C266.08,560.965 265.222,569.153 267.058,577.279 C267.728,580.251 268.386,580.762 268.479,580.82 C268.482,580.783 268.854,580.575 269.427,579.547 M263.105,577.249 L263.073,577.271 C263.754,577.765 264.448,578.253 265.156,578.737 C265.073,578.427 264.992,578.11 264.914,577.765 C262.999,569.283 263.873,560.937 264.98,550.372 C266.914,531.925 269.563,506.663 260.119,460.751 C259.991,460.125 259.87,459.479 259.755,458.822 C259.045,479.881 257.91,504.149 256.768,508.723 L256.489,508.653 C257.228,512.641 258.059,516.437 259,519.955 C261.989,531.149 256.169,542.473 250.933,543.871 C253.402,554.009 257.841,568.946 263.105,577.249 M260.868,575.606 C256.02,566.821 252.078,553.391 249.82,544.013 C245.091,543.946 235.468,534.622 236.923,525.152 C236.451,524.418 236.048,523.637 235.75,522.807 C234.846,520.307 234.893,517.5 235.74,514.987 L236.05,514.037 L236.482,513.143 L237.33,511.382 L237.734,510.528 L238.061,509.629 C238.291,509.034 238.49,508.427 238.655,507.805 C239.198,505.986 239.617,504.125 239.983,502.252 C239.563,502.147 239.105,501.965 238.601,501.643 C236.088,500.044 232.97,495.475 229.633,488.793 C228.193,523.502 234.914,555.309 260.868,575.606 M268.605,346.765 C268.697,339.821 267.951,330.365 263.689,326.258 C260.426,326.861 256.91,327.328 253.168,327.658 C253.121,327.942 253.12,328.262 253.176,328.626 C254.606,337.98 253.571,350.036 251.29,363.85 C252.718,374.17 258.137,389.534 260.717,396.306 C262.699,378.53 265.612,360.797 268.605,346.765 M240.386,500.083 C241.061,496.167 241.604,492.226 242.063,488.272 C241.124,486.079 239.573,482.848 237.965,479.503 C236.18,475.782 233.982,471.202 231.598,465.969 C230.844,472 230.256,477.999 229.887,483.927 C233.743,492.447 237.275,498.197 239.781,499.791 C240.005,499.933 240.203,500.023 240.386,500.083 M257.819,517.908 C257.883,516.161 257.684,514.261 257.135,512.205 C256.867,511.214 256.626,510.214 256.385,509.217 C256.334,509.006 256.277,508.798 256.228,508.588 L255.702,508.457 C255.777,508.154 255.854,507.735 255.931,507.247 C255.171,503.842 254.536,500.407 254,496.959 C253.2,491.829 252.564,486.674 252.07,481.503 C251.052,471.165 250.478,460.785 250.146,450.402 C249.802,440.42 249.765,430.406 249.514,420.46 C249.442,421.301 249.374,422.143 249.302,422.984 C248.9,428.146 248.571,433.324 248.224,438.502 C247.496,448.859 246.737,459.222 245.71,469.565 C244.642,479.903 243.468,490.246 241.43,500.474 C240.901,503.027 240.321,505.571 239.505,508.069 C239.32,508.697 239.1,509.316 238.845,509.927 L238.483,510.847 L238.031,511.742 L237.145,513.467 L236.707,514.313 L236.391,515.207 C235.522,517.578 235.405,520.228 236.205,522.646 C237.003,525.068 238.676,527.157 240.706,528.713 C242.758,530.181 245.307,531.346 247.867,530.812 C249.133,530.586 250.342,530.07 251.429,529.376 C251.997,529.065 252.483,528.634 253.001,528.247 C253.455,527.79 253.97,527.385 254.362,526.868 C256.046,524.909 257.205,522.483 257.595,519.916 C257.907,518.009 257.854,516.063 257.542,514.155 C257.75,515.396 257.859,516.654 257.819,517.908 M260.459,398.672 C258.551,393.866 252.931,378.588 250.737,367.099 C245.918,394.598 236.701,428.521 232.142,461.828 C235.079,468.408 237.809,474.101 239.946,478.551 C240.974,480.692 241.827,482.473 242.532,483.979 C243.032,479.125 243.438,474.26 243.832,469.398 C244.654,459.061 245.342,448.71 246.034,438.354 C246.401,433.175 246.765,427.995 247.193,422.81 C247.42,420.209 247.647,417.637 248.071,414.987 C248.146,414.635 248.208,414.307 248.298,413.936 C248.379,413.696 248.474,413.457 248.578,413.23 C248.633,413.112 248.722,412.989 248.891,412.822 L249.081,412.676 C249.135,412.635 249.253,412.573 249.396,412.53 C249.623,412.434 250.104,412.498 250.292,412.646 C250.713,412.932 250.754,413.151 250.829,413.277 C250.899,413.427 250.931,413.536 250.961,413.646 C251.023,413.864 251.055,414.043 251.088,414.23 C251.146,414.59 251.184,414.931 251.214,415.268 C251.326,416.615 251.355,417.915 251.381,419.227 C251.456,424.445 251.334,429.626 251.297,434.819 C251.246,440.008 251.219,445.194 251.249,450.38 C251.273,453.928 251.334,457.477 251.417,461.024 C252.267,475.75 253.61,492.078 256.067,506.288 C257.138,498.072 258.229,473.599 258.875,452.201 C257.455,437.771 258.363,418.295 260.459,398.672 M220.527,312.181 C221.739,308.991 222.013,303.069 221.771,296.545 C218.007,296.31 214.321,296.175 210.732,296.125 C193.449,297.842 183.968,300.133 178.958,302.393 C174.976,304.691 173.514,307.643 177.019,311.417 C181.543,313.943 187.385,316.205 194.134,318.087 L194.181,318.065 C201.633,315.144 212.549,317.113 215.448,320.628 C216.863,320.249 219.052,320.336 222.282,320.476 C228.122,320.733 236.12,321.079 244.321,318.683 C251.449,316.603 272.448,311.68 275.336,316.225 C275.753,316.883 275.813,317.621 275.542,318.431 C277.283,317.702 278.837,316.907 280.181,316.05 C280.931,314.908 281.196,313.815 280.936,312.785 C280.379,310.587 277.802,308.463 273.247,306.424 C263.365,302.441 247.647,298.786 228.387,297.05 C228.598,303.948 228.226,310.478 226.689,314.522 L220.527,312.181 z M196.897,248.881 C196.729,248.031 196.571,247.18 196.43,246.321 L81.733,361.1 C84.503,363.867 87.393,366.588 90.322,369.182 L196.897,248.881 z M196.64,210.428 C196.715,209.856 196.792,209.284 196.873,208.713 L52.51,121.449 C50.476,124.814 48.519,128.284 46.693,131.763 L196.64,210.428 z M196.24,213.64 C196.302,213.107 196.366,212.572 196.434,212.038 L41.494,142.451 C39.883,146.039 38.361,149.721 36.972,153.392 L196.24,213.64 z M195.923,216.63 C195.971,216.141 196.02,215.652 196.072,215.164 L33.109,164.63 C31.941,168.398 30.874,172.251 29.937,176.085 L195.923,216.63 z M195.786,218.077 L27.47,187.705 C26.774,191.559 26.187,195.481 25.725,199.359 L195.657,219.596 C195.698,219.09 195.74,218.583 195.786,218.077 M52.669,324.079 C54.7,327.427 56.861,330.759 59.09,333.981 L195.584,239.489 C195.526,238.82 195.476,238.147 195.432,237.473 L52.669,324.079 z M41.656,303.173 C43.27,306.744 45.014,310.314 46.842,313.785 L195.326,235.588 C195.299,234.985 195.275,234.382 195.257,233.777 L41.656,303.173 z M33.23,281.021 C34.403,284.782 35.71,288.557 37.11,292.238 L195.221,232.073 C195.213,231.53 195.209,230.987 195.209,230.443 L33.23,281.021 z M195.294,225.773 C195.313,225.261 195.335,224.748 195.361,224.236 L24.708,234.569 C24.945,238.479 25.305,242.431 25.774,246.315 L195.294,225.773 z M27.553,258.012 C28.262,261.884 29.1,265.784 30.042,269.601 L195.217,228.855 C195.224,228.339 195.232,227.823 195.243,227.306 L27.553,258.012 z M159.387,310.663 C160.013,306.884 162.086,303.026 166.84,299.877 L198.226,254.463 C197.959,253.511 197.71,252.554 197.482,251.591 L99.387,376.738 C102.47,379.154 105.667,381.51 108.888,383.735 L159.387,310.663 z M284.822,542.269 C284.18,553.887 283.301,566.62 282.184,580.466 C282.14,581.008 282.101,581.487 282.065,581.933 L284.92,581.92 L284.822,542.269 z M165.763,507.584 C165.763,506.31 165.817,503.659 165.886,500.302 C166.027,493.369 166.311,479.6 166.157,469.037 C164.629,489.458 160.586,494.889 157.491,499.042 C156.211,500.761 155.2,502.119 154.662,504.304 C153.695,508.247 154.405,512.63 156.435,515.216 C157.174,516.161 158.448,517.286 160.312,517.286 C164.438,517.286 165.763,514.93 165.763,507.584 M295.644,547.401 C296.625,545.631 296.289,542.129 293.748,538.862 C290.944,535.259 288.914,525.257 287.771,519.058 L287.771,543.026 C287.771,545.95 289.952,548.465 292.736,548.755 C294.07,548.883 295.078,548.424 295.644,547.401 M293.214,427.15 C291.032,424.348 289.247,416.101 287.939,408.355 L288.221,430.963 C288.221,433.623 290.185,435.9 292.692,436.159 C293.832,436.278 294.6,435.923 295.062,435.086 C295.936,433.514 295.583,430.198 293.214,427.15 M436.36,220.834 C436.36,308.047 384.677,386.389 304.589,420.741 C304.383,420.829 303.161,421.376 302.151,421.824 C300.668,429.901 304.241,439.064 303.854,442.433 C302.481,454.379 293.144,443.623 293.144,443.623 C293.127,443.419 287.958,462.811 291.962,505.565 C294.238,529.865 303.894,539.365 303.763,547.158 C303.596,557.137 293.51,555.493 293.51,555.493 L295.157,586.883 L160.221,587.797 L160.307,531.065 C160.307,531.065 142.098,524.546 143.746,508.59 C145.549,491.13 155.825,486.371 159.213,467.632 C162.158,451.352 155.762,436.445 150.229,427.18 C107.405,412.934 70.573,386.111 43.682,349.562 C16.086,312.052 1.5,267.541 1.5,220.834 C1.5,100.944 99.039,3.404 218.93,3.404 C338.822,3.404 436.36,100.944 436.36,220.834 M257.527,514.072 L257.542,514.155 L257.527,514.072 M257.527,514.072 C257.424,513.446 257.292,512.823 257.135,512.205 C257.295,512.821 257.421,513.446 257.527,514.072" fill="#0B0B09"/>
  </g>
</svg>
